Coordinates
version=1
nRows=7
nColumns=40
inDegrees=yes

Units are S.I. units (second, meters, Newtons, ...)
Angles are in degrees.

endheader
time	pelvis_tilt	pelvis_list	pelvis_rotation	pelvis_tx	pelvis_ty	pelvis_tz	hip_flexion_r	hip_adduction_r	hip_rotation_r	knee_angle_r	knee_angle_r_beta	ankle_angle_r	subtalar_angle_r	mtp_angle_r	hip_flexion_l	hip_adduction_l	hip_rotation_l	knee_angle_l	knee_angle_l_beta	ankle_angle_l	subtalar_angle_l	mtp_angle_l	lumbar_extension	lumbar_bending	lumbar_rotation	arm_flex_r	arm_add_r	arm_rot_r	elbow_flex_r	pro_sup_r	wrist_flex_r	wrist_dev_r	arm_flex_l	arm_add_l	arm_rot_l	elbow_flex_l	pro_sup_l	wrist_flex_l	wrist_dev_l
     57.98000000	     -4.38589193	     -6.38025957	      2.23741608	      1.11212371	      0.93199194	      0.51061104	     12.13442000	      4.29084986	    -15.35326809	     16.04985337	     16.04985337	      9.50497296	      0.17635504	     -1.96363407	     26.52104572	    -14.14929594	      2.49865295	     65.04211838	     65.04211838	      6.49784510	    -18.57177439	     12.24551863	     -9.97298891	      7.21122798	      4.08246649	      8.99950387	    -12.54633562	     -9.91890909	     38.52493577	     45.39382033	      0.00000000	      0.00000000	     10.95310154	     -7.19160677	     -5.59286012	     50.68678441	     45.53910509	      0.00000000	      0.00000000
     57.99157143	     -4.53529176	     -6.41406887	      2.85048229	      1.10980957	      0.93189895	      0.51103076	     11.55281412	      4.41905666	    -15.64295675	     15.61475979	     15.61475979	      9.80913369	      0.00268975	     -1.98717881	     28.54511679	    -14.28474935	      2.30029406	     63.37309151	     63.37309151	      6.96442250	    -18.80673848	     12.53596686	     -9.97753516	      7.10583577	      3.05764780	     12.06522765	    -12.44987506	     -9.84497084	     40.49860148	     45.33867825	      0.00000000	      0.00000000	      9.69563738	     -7.44426108	     -5.22450503	     47.86316714	     45.48544806	      0.00000000	      0.00000000
     58.00314286	     -4.66673460	     -6.43231810	      3.42460814	      1.10749576	      0.93175726	      0.51140134	     11.01609141	      4.54199644	    -15.78693770	     15.27040461	     15.27040461	     10.06912064	     -0.39764627	     -2.13934092	     30.33642985	    -14.28558725	      2.06529866	     61.41801538	     61.41801538	      7.74827082	    -18.93405783	     14.01919544	     -9.95141006	      7.01773244	      3.35752539	     14.01125681	    -13.30289016	     -8.74374171	     43.39034024	     45.21199170	      0.00000000	      0.00000000	     10.74457498	     -6.88738568	     -4.32078734	     40.61483705	     45.43681621	      0.00000000	      0.00000000
     58.01471429	     -4.76021889	     -6.42812213	      3.97378853	      1.10528185	      0.93158829	      0.51165343	     10.42125063	      4.64462457	    -15.95563232	     14.90421139	     14.90421139	     10.36341683	     -0.69345312	     -2.22702591	     31.82778710	    -14.18339906	      1.75944257	     59.08380154	     59.08380154	      8.31578143	    -18.99546449	     15.13315217	    -10.04704780	      6.92788813	      3.17953616	     16.12600095	    -13.80750846	     -8.43713221	     46.76768150	     45.11747588	      0.00000000	      0.00000000	     10.70084371	     -6.67307785	     -3.53794184	     35.91175059	     45.40753794	      0.00000000	      0.00000000
     58.02628571	     -4.81361221	     -6.37815784	      4.48855088	      1.10317787	      0.93145701	      0.51180245	      9.77695179	      4.70069715	    -16.11687145	     14.53436973	     14.53436973	     10.68433889	     -0.91645685	     -2.24324001	     32.98516677	    -13.95306329	      1.37896608	     56.32597561	     56.32597561	      8.57758201	    -19.02221680	     15.55519589	    -10.22293379	      6.77538744	      2.43009274	     19.02866905	    -13.74225778	     -8.55133731	     48.91821453	     45.06727722	      0.00000000	      0.00000000	      9.50750341	     -6.80013103	     -3.21964124	     33.74191732	     45.36220125	      0.00000000	      0.00000000
     58.03785714	     -4.93972493	     -6.33911041	      4.94712349	      1.10106260	      0.93113481	      0.51176851	      9.22541904	      4.75038485	    -16.27860842	     14.17589986	     14.17589986	     10.95955058	     -1.08689708	     -2.39260864	     34.05095994	    -13.59506647	      1.06605170	     53.31439357	     53.31439357	      8.83942906	    -18.96894445	     16.07758244	    -10.27800000	      6.67058097	      2.67770306	     20.94036185	    -14.53757098	     -8.19029173	     52.16128804	     44.98058231	      0.00000000	      0.00000000	      9.98754484	     -6.40079723	     -2.24455192	     28.33584115	     45.30019192	      0.00000000	      0.00000000
     58.04942857	     -5.03233255	     -6.21069060	      5.35260414	      1.09905248	      0.93090127	      0.51155015	      8.61671791	      4.69866044	    -16.40542973	     13.80996892	     13.80996892	     11.27249290	     -1.18515034	     -2.43602606	     34.79601662	    -13.03183138	      0.77083955	     49.90684010	     49.90684010	      8.95037085	    -18.84000863	     16.21951049	    -10.43378670	      6.46049704	      2.18907534	     23.65125048	    -14.54408102	     -8.38979958	     54.32537594	     44.93370747	      0.00000000	      0.00000000	      8.73235833	     -6.46585150	     -2.03832964	     26.83035494	     45.26286635	      0.00000000	      0.00000000
